<?xml version="1.0" encoding="UTF-8"?>
<svg width="16px" height="16px" viewBox="0 0 16 16" version="1.1" xmlns="http://www.w3.org/2000/svg" xmlns:xlink="http://www.w3.org/1999/xlink">
    <title>flag-filled备份 2</title>
    <g id="页面-1" stroke="none" stroke-width="1" fill="none" fill-rule="evenodd">
        <g id="葫芦娃备份" transform="translate(-28.000000, -232.000000)">
            <g id="flag-filled备份-2" transform="translate(28.000000, 232.000000)">
                <rect id="矩形" fill="#000000" opacity="0" x="0" y="0" width="16" height="16"></rect>
                <path d="M13.75,4.765625 L9.75,4.765625 L9.75,3 C9.75,2.7234375 9.5265625,2.5 9.25,2.5 L2.875,2.5 L2.875,1.875 C2.875,1.80625 2.81875,1.75 2.75,1.75 L1.875,1.75 C1.80625,1.75 1.75,1.80625 1.75,1.875 L1.75,14.125 C1.75,14.19375 1.80625,14.25 1.875,14.25 L2.75,14.25 C2.81875,14.25 2.875,14.19375 2.875,14.125 L2.875,10 L6.75,10 L6.75,11.765625 C6.75,12.0421875 6.9734375,12.265625 7.25,12.265625 L13.75,12.265625 C14.0265625,12.265625 14.25,12.0421875 14.25,11.765625 L14.25,5.265625 C14.25,4.9890625 14.0265625,4.765625 13.75,4.765625 Z" id="路径" fill="#A6AAB3"></path>
            </g>
        </g>
    </g>
</svg>